<svg width="120" height="31" viewBox="0 0 120 31" fill="none" xmlns="http://www.w3.org/2000/svg">
<rect y="0.499954" width="30.1959" height="30.0001" rx="6" fill="#FFE300"/>
<path d="M15.0976 6.49995C10.927 6.49995 8 13.4874 8 17.2707C8 19.2063 8.72624 21.0191 10.0448 22.3755C11.3766 23.7456 13.171 24.5 15.0976 24.5C17.0244 24.5 18.8191 23.7456 20.1511 22.3756C21.4698 21.0192 22.1958 19.2063 22.1958 17.2707C22.1958 13.4874 19.2688 6.49995 15.0976 6.49995ZM20.788 17.2707C20.788 20.535 18.2886 23.0922 15.0975 23.0922C11.9071 23.0922 9.4077 20.535 9.4077 17.2707C9.4077 15.5478 10.1138 13.1193 11.1647 11.2278C12.337 9.1178 13.7705 7.90775 15.0976 7.90775C16.425 7.90775 17.8586 9.1178 19.031 11.2278C20.0819 13.1192 20.788 15.5477 20.788 17.2707Z" fill="#242731"/>
<path d="M51.1718 24.288C49.5878 24.288 48.2038 23.928 47.0198 23.208C45.8358 22.488 44.9158 21.488 44.2598 20.208C43.6038 18.912 43.2758 17.408 43.2758 15.696C43.2758 13.968 43.6118 12.448 44.2838 11.136C44.9718 9.808 45.9398 8.776 47.1878 8.04C48.4518 7.288 49.9478 6.912 51.6758 6.912C53.6438 6.912 55.2758 7.384 56.5718 8.328C57.8678 9.272 58.7078 10.576 59.0918 12.24H55.6598C55.4038 11.456 54.9398 10.848 54.2678 10.416C53.5958 9.968 52.7318 9.744 51.6758 9.744C49.9958 9.744 48.6998 10.28 47.7878 11.352C46.8758 12.408 46.4198 13.864 46.4198 15.72C46.4198 17.576 46.8678 19.016 47.7638 20.04C48.6758 21.048 49.9078 21.552 51.4598 21.552C52.9798 21.552 54.1238 21.144 54.8918 20.328C55.6758 19.496 56.1478 18.408 56.3078 17.064H52.0598V14.76H59.4038V24H56.5718L56.3318 21.792C55.7878 22.592 55.1078 23.208 54.2918 23.64C53.4758 24.072 52.4358 24.288 51.1718 24.288ZM62.3183 24V12.096H65.0543L65.3423 14.328C65.7743 13.56 66.3583 12.952 67.0943 12.504C67.8463 12.04 68.7263 11.808 69.7343 11.808V15.048H68.8703C68.1983 15.048 67.5983 15.152 67.0703 15.36C66.5423 15.568 66.1263 15.928 65.8223 16.44C65.5343 16.952 65.3903 17.664 65.3903 18.576V24H62.3183ZM75.9379 24.288C74.9139 24.288 74.0739 24.128 73.4179 23.808C72.7619 23.472 72.2739 23.032 71.9539 22.488C71.6339 21.944 71.4739 21.344 71.4739 20.688C71.4739 19.584 71.9059 18.688 72.7699 18C73.6339 17.312 74.9299 16.968 76.6579 16.968H79.6819V16.68C79.6819 15.864 79.4499 15.264 78.9859 14.88C78.5219 14.496 77.9459 14.304 77.2579 14.304C76.6339 14.304 76.0899 14.456 75.6259 14.76C75.1619 15.048 74.8739 15.48 74.7619 16.056H71.7619C71.8419 15.192 72.1299 14.44 72.6259 13.8C73.1379 13.16 73.7939 12.672 74.5939 12.336C75.3939 11.984 76.2899 11.808 77.2819 11.808C78.9779 11.808 80.3139 12.232 81.2899 13.08C82.2659 13.928 82.7539 15.128 82.7539 16.68V24H80.1379L79.8499 22.08C79.4979 22.72 79.0019 23.248 78.3619 23.664C77.7379 24.08 76.9299 24.288 75.9379 24.288ZM76.6339 21.888C77.5139 21.888 78.1939 21.6 78.6739 21.024C79.1699 20.448 79.4819 19.736 79.6099 18.888H76.9939C76.1779 18.888 75.5939 19.04 75.2419 19.344C74.8899 19.632 74.7139 19.992 74.7139 20.424C74.7139 20.888 74.8899 21.248 75.2419 21.504C75.5939 21.76 76.0579 21.888 76.6339 21.888ZM85.6855 24V12.096H88.3975L88.6375 14.112C89.0055 13.408 89.5335 12.848 90.2215 12.432C90.9255 12.016 91.7495 11.808 92.6935 11.808C94.1655 11.808 95.3095 12.272 96.1255 13.2C96.9415 14.128 97.3495 15.488 97.3495 17.28V24H94.2775V17.568C94.2775 16.544 94.0695 15.76 93.6535 15.216C93.2375 14.672 92.5895 14.4 91.7095 14.4C90.8455 14.4 90.1335 14.704 89.5735 15.312C89.0295 15.92 88.7575 16.768 88.7575 17.856V24H85.6855ZM101.991 10.248C101.431 10.248 100.967 10.08 100.599 9.744C100.247 9.408 100.071 8.984 100.071 8.472C100.071 7.96 100.247 7.544 100.599 7.224C100.967 6.888 101.431 6.72 101.991 6.72C102.551 6.72 103.007 6.888 103.359 7.224C103.727 7.544 103.911 7.96 103.911 8.472C103.911 8.984 103.727 9.408 103.359 9.744C103.007 10.08 102.551 10.248 101.991 10.248ZM98.0311 29.28V26.664H98.9671C99.4951 26.664 99.8711 26.56 100.095 26.352C100.319 26.144 100.431 25.792 100.431 25.296V12.096H103.503V25.296C103.503 26.736 103.135 27.76 102.399 28.368C101.679 28.976 100.695 29.28 99.4471 29.28H98.0311ZM110.813 24.288C109.789 24.288 108.949 24.128 108.293 23.808C107.637 23.472 107.149 23.032 106.829 22.488C106.509 21.944 106.349 21.344 106.349 20.688C106.349 19.584 106.781 18.688 107.645 18C108.509 17.312 109.805 16.968 111.533 16.968H114.557V16.68C114.557 15.864 114.325 15.264 113.861 14.88C113.397 14.496 112.821 14.304 112.133 14.304C111.509 14.304 110.965 14.456 110.501 14.76C110.037 15.048 109.749 15.48 109.637 16.056H106.637C106.717 15.192 107.005 14.44 107.501 13.8C108.013 13.16 108.669 12.672 109.469 12.336C110.269 11.984 111.165 11.808 112.157 11.808C113.853 11.808 115.189 12.232 116.165 13.08C117.141 13.928 117.629 15.128 117.629 16.68V24H115.013L114.725 22.08C114.373 22.72 113.877 23.248 113.237 23.664C112.613 24.08 111.805 24.288 110.813 24.288ZM111.509 21.888C112.389 21.888 113.069 21.6 113.549 21.024C114.045 20.448 114.357 19.736 114.485 18.888H111.869C111.053 18.888 110.469 19.04 110.117 19.344C109.765 19.632 109.589 19.992 109.589 20.424C109.589 20.888 109.765 21.248 110.117 21.504C110.469 21.76 110.933 21.888 111.509 21.888Z" fill="white"/>
</svg>
