<svg width="173" height="31" viewBox="0 0 173 31" fill="none" xmlns="http://www.w3.org/2000/svg">
<rect y="0.499939" width="30.1959" height="30.0001" rx="6" fill="#FFE300"/>
<path d="M15.0976 6.49994C10.927 6.49994 8 13.4874 8 17.2707C8 19.2062 8.72624 21.0191 10.0448 22.3755C11.3766 23.7455 13.171 24.5 15.0976 24.5C17.0244 24.5 18.8191 23.7455 20.1511 22.3756C21.4698 21.0192 22.1959 19.2062 22.1959 17.2707C22.1958 13.4874 19.2688 6.49994 15.0976 6.49994ZM20.788 17.2707C20.788 20.535 18.2886 23.0921 15.0975 23.0921C11.9071 23.0921 9.4077 20.535 9.4077 17.2707C9.4077 15.5478 10.1138 13.1193 11.1647 11.2278C12.337 9.11778 13.7705 7.90774 15.0976 7.90774C16.425 7.90774 17.8586 9.11778 19.031 11.2278C20.0819 13.1192 20.788 15.5477 20.788 17.2707Z" fill="#242731"/>
<path d="M51.4358 24.288C49.7398 24.288 48.2838 23.928 47.0678 23.208C45.8518 22.472 44.9158 21.456 44.2598 20.16C43.6038 18.848 43.2758 17.336 43.2758 15.624C43.2758 13.912 43.6038 12.4 44.2598 11.088C44.9158 9.776 45.8518 8.752 47.0678 8.016C48.2838 7.28 49.7398 6.912 51.4358 6.912C53.4518 6.912 55.0998 7.416 56.3798 8.424C57.6758 9.416 58.4838 10.816 58.8038 12.624H55.4198C55.2118 11.712 54.7638 11 54.0758 10.488C53.4038 9.96 52.5078 9.696 51.3878 9.696C49.8358 9.696 48.6198 10.224 47.7398 11.28C46.8598 12.336 46.4198 13.784 46.4198 15.624C46.4198 17.464 46.8598 18.912 47.7398 19.968C48.6198 21.008 49.8358 21.528 51.3878 21.528C52.5078 21.528 53.4038 21.288 54.0758 20.808C54.7638 20.312 55.2118 19.632 55.4198 18.768H58.8038C58.4838 20.496 57.6758 21.848 56.3798 22.824C55.0998 23.8 53.4518 24.288 51.4358 24.288ZM67.1631 24.288C66.0111 24.288 64.9711 24.024 64.0431 23.496C63.1311 22.968 62.4031 22.24 61.8591 21.312C61.3311 20.368 61.0671 19.28 61.0671 18.048C61.0671 16.816 61.3391 15.736 61.8831 14.808C62.4271 13.864 63.1551 13.128 64.0671 12.6C64.9951 12.072 66.0351 11.808 67.1871 11.808C68.3231 11.808 69.3471 12.072 70.2591 12.6C71.1871 13.128 71.9151 13.864 72.4431 14.808C72.9871 15.736 73.2591 16.816 73.2591 18.048C73.2591 19.28 72.9871 20.368 72.4431 21.312C71.9151 22.24 71.1871 22.968 70.2591 23.496C69.3311 24.024 68.2991 24.288 67.1631 24.288ZM67.1631 21.624C67.9631 21.624 68.6591 21.328 69.2511 20.736C69.8431 20.128 70.1391 19.232 70.1391 18.048C70.1391 16.864 69.8431 15.976 69.2511 15.384C68.6591 14.776 67.9711 14.472 67.1871 14.472C66.3711 14.472 65.6671 14.776 65.0751 15.384C64.4991 15.976 64.2111 16.864 64.2111 18.048C64.2111 19.232 64.4991 20.128 65.0751 20.736C65.6671 21.328 66.3631 21.624 67.1631 21.624ZM76.0058 24V12.096H78.7178L78.9578 14.112C79.3258 13.408 79.8538 12.848 80.5418 12.432C81.2458 12.016 82.0698 11.808 83.0138 11.808C84.4858 11.808 85.6298 12.272 86.4458 13.2C87.2618 14.128 87.6698 15.488 87.6698 17.28V24H84.5978V17.568C84.5978 16.544 84.3898 15.76 83.9738 15.216C83.5578 14.672 82.9098 14.4 82.0298 14.4C81.1658 14.4 80.4538 14.704 79.8938 15.312C79.3498 15.92 79.0778 16.768 79.0778 17.856V24H76.0058ZM95.9114 24C94.6634 24 93.6634 23.696 92.9114 23.088C92.1594 22.48 91.7834 21.4 91.7834 19.848V14.664H89.7434V12.096H91.7834L92.1434 8.904H94.8554V12.096H98.0714V14.664H94.8554V19.872C94.8554 20.448 94.9754 20.848 95.2154 21.072C95.4714 21.28 95.9034 21.384 96.5114 21.384H97.9994V24H95.9114ZM104.813 24.288C103.789 24.288 102.949 24.128 102.293 23.808C101.637 23.472 101.149 23.032 100.829 22.488C100.509 21.944 100.349 21.344 100.349 20.688C100.349 19.584 100.781 18.688 101.645 18C102.509 17.312 103.805 16.968 105.533 16.968H108.557V16.68C108.557 15.864 108.325 15.264 107.861 14.88C107.397 14.496 106.821 14.304 106.133 14.304C105.509 14.304 104.965 14.456 104.501 14.76C104.037 15.048 103.749 15.48 103.637 16.056H100.637C100.717 15.192 101.005 14.44 101.501 13.8C102.013 13.16 102.669 12.672 103.469 12.336C104.269 11.984 105.165 11.808 106.157 11.808C107.853 11.808 109.189 12.232 110.165 13.08C111.141 13.928 111.629 15.128 111.629 16.68V24H109.013L108.725 22.08C108.373 22.72 107.877 23.248 107.237 23.664C106.613 24.08 105.805 24.288 104.813 24.288ZM105.509 21.888C106.389 21.888 107.069 21.6 107.549 21.024C108.045 20.448 108.357 19.736 108.485 18.888H105.869C105.053 18.888 104.469 19.04 104.117 19.344C103.765 19.632 103.589 19.992 103.589 20.424C103.589 20.888 103.765 21.248 104.117 21.504C104.469 21.76 104.933 21.888 105.509 21.888ZM122.504 24.288C120.824 24.288 119.352 23.92 118.088 23.184C116.84 22.448 115.856 21.432 115.136 20.136C114.432 18.824 114.08 17.312 114.08 15.6C114.08 13.888 114.432 12.384 115.136 11.088C115.856 9.776 116.84 8.752 118.088 8.016C119.352 7.28 120.824 6.912 122.504 6.912C124.168 6.912 125.632 7.28 126.896 8.016C128.16 8.752 129.144 9.776 129.848 11.088C130.552 12.384 130.904 13.888 130.904 15.6C130.904 17.312 130.552 18.824 129.848 20.136C129.144 21.432 128.16 22.448 126.896 23.184C125.632 23.92 124.168 24.288 122.504 24.288ZM122.504 21.528C124.104 21.528 125.376 21 126.32 19.944C127.28 18.888 127.76 17.44 127.76 15.6C127.76 13.76 127.28 12.312 126.32 11.256C125.376 10.2 124.104 9.672 122.504 9.672C120.904 9.672 119.624 10.2 118.664 11.256C117.704 12.312 117.224 13.76 117.224 15.6C117.224 17.44 117.704 18.888 118.664 19.944C119.624 21 120.904 21.528 122.504 21.528ZM136.761 24L132.393 12.096H135.609L138.633 21.096L141.657 12.096H144.873L140.481 24H136.761ZM151.937 24.288C150.785 24.288 149.745 24.024 148.817 23.496C147.905 22.968 147.177 22.24 146.633 21.312C146.105 20.368 145.841 19.28 145.841 18.048C145.841 16.816 146.113 15.736 146.657 14.808C147.201 13.864 147.929 13.128 148.841 12.6C149.769 12.072 150.809 11.808 151.961 11.808C153.097 11.808 154.121 12.072 155.033 12.6C155.961 13.128 156.689 13.864 157.217 14.808C157.761 15.736 158.033 16.816 158.033 18.048C158.033 19.28 157.761 20.368 157.217 21.312C156.689 22.24 155.961 22.968 155.033 23.496C154.105 24.024 153.073 24.288 151.937 24.288ZM151.937 21.624C152.737 21.624 153.433 21.328 154.025 20.736C154.617 20.128 154.913 19.232 154.913 18.048C154.913 16.864 154.617 15.976 154.025 15.384C153.433 14.776 152.745 14.472 151.961 14.472C151.145 14.472 150.441 14.776 149.849 15.384C149.273 15.976 148.985 16.864 148.985 18.048C148.985 19.232 149.273 20.128 149.849 20.736C150.441 21.328 151.137 21.624 151.937 21.624ZM165.699 24.288C164.643 24.288 163.715 24.12 162.915 23.784C162.115 23.432 161.475 22.952 160.995 22.344C160.515 21.736 160.227 21.032 160.131 20.232H163.227C163.323 20.696 163.579 21.096 163.995 21.432C164.427 21.752 164.979 21.912 165.651 21.912C166.323 21.912 166.811 21.776 167.115 21.504C167.435 21.232 167.595 20.92 167.595 20.568C167.595 20.056 167.371 19.712 166.923 19.536C166.475 19.344 165.851 19.16 165.051 18.984C164.539 18.872 164.019 18.736 163.491 18.576C162.963 18.416 162.475 18.216 162.027 17.976C161.595 17.72 161.243 17.4 160.971 17.016C160.699 16.616 160.563 16.128 160.563 15.552C160.563 14.496 160.979 13.608 161.811 12.888C162.659 12.168 163.843 11.808 165.363 11.808C166.771 11.808 167.891 12.136 168.723 12.792C169.571 13.448 170.075 14.352 170.235 15.504H167.331C167.155 14.624 166.491 14.184 165.339 14.184C164.763 14.184 164.315 14.296 163.995 14.52C163.691 14.744 163.539 15.024 163.539 15.36C163.539 15.712 163.771 15.992 164.235 16.2C164.699 16.408 165.315 16.6 166.083 16.776C166.915 16.968 167.675 17.184 168.363 17.424C169.067 17.648 169.627 17.992 170.043 18.456C170.459 18.904 170.667 19.552 170.667 20.4C170.683 21.136 170.491 21.8 170.091 22.392C169.691 22.984 169.115 23.448 168.363 23.784C167.611 24.12 166.723 24.288 165.699 24.288Z" fill="#1F2128"/>
</svg>
